<svg width="35" height="26" viewBox="0 0 35 26" fill="none" xmlns="http://www.w3.org/2000/svg">
<g clip-path="url(#clip0_105_2)">
<path d="M33 0.5H2C1.17157 0.5 0.5 1.17157 0.5 2V24C0.5 24.8284 1.17157 25.5 2 25.5H33C33.8284 25.5 34.5 24.8284 34.5 24V2C34.5 1.17157 33.8284 0.5 33 0.5Z" stroke="black" stroke-opacity="0.26"/>
<g clip-path="url(#clip1_105_2)">
<path d="M24.0395 17.8024C23.5136 17.3955 23.0869 16.8658 22.7938 16.2559C22.5007 15.6461 22.3494 14.9732 22.352 14.2915V11.3665C22.3506 10.1996 21.9839 9.06487 21.3073 8.13397C20.6307 7.20306 19.6811 6.52659 18.602 6.20679V5.51649C18.602 4.71014 17.9711 4.05399 17.1958 4.05399C16.4205 4.05399 15.7895 4.71014 15.7895 5.51649V6.20679C14.7105 6.52659 13.7609 7.20306 13.0843 8.13397C12.4077 9.06487 12.041 10.1996 12.0395 11.3665V14.2915C12.042 14.9732 11.8907 15.6461 11.5976 16.2558C11.3045 16.8656 10.8779 17.3954 10.352 17.8024C10.2733 17.8639 10.2152 17.9494 10.1859 18.0471C10.1565 18.1448 10.1575 18.2495 10.1886 18.3466C10.2197 18.4437 10.2794 18.5281 10.3592 18.588C10.439 18.6478 10.5349 18.6799 10.6333 18.6799H14.8989C14.8299 19.034 14.8374 19.3996 14.9208 19.7503C15.0041 20.1009 15.1613 20.428 15.381 20.7078C15.6006 20.9876 15.8773 21.2133 16.191 21.3684C16.5046 21.5236 16.8475 21.6044 17.1948 21.6049C17.5423 21.6045 17.8853 21.5238 18.199 21.3688C18.5129 21.2136 18.7896 20.9881 19.0094 20.7082C19.2291 20.4283 19.3864 20.1012 19.4698 19.7505C19.5532 19.3997 19.5607 19.0341 19.4917 18.6799H23.7573C23.8557 18.6799 23.9516 18.6478 24.0314 18.588C24.1113 18.5281 24.1709 18.4437 24.202 18.3466C24.2332 18.2495 24.2341 18.1448 24.2048 18.0471C24.1755 17.9494 24.1173 17.8639 24.0386 17.8024H24.0395ZM16.727 5.51649C16.727 5.3872 16.7764 5.26319 16.8643 5.17178C16.9522 5.08034 17.0715 5.02899 17.1958 5.02899C17.3201 5.02899 17.4393 5.08034 17.5272 5.17178C17.6152 5.26319 17.6645 5.3872 17.6645 5.51649V6.02639C17.3527 5.99684 17.0389 5.99684 16.727 6.02639V5.51649ZM18.602 19.1665C18.602 19.9728 17.9711 20.629 17.1958 20.629C16.971 20.6285 16.7495 20.5721 16.55 20.4644C16.3505 20.3567 16.1786 20.2009 16.0489 20.0099C15.9191 19.8191 15.8351 19.5986 15.804 19.367C15.773 19.1355 15.7956 18.8996 15.8702 18.679H18.5214C18.5739 18.835 18.602 18.9997 18.602 19.1665ZM11.7977 17.704C12.0367 17.4027 12.2448 17.0741 12.4155 16.728C12.7872 15.9742 12.9798 15.1387 12.977 14.2915V11.3665C12.977 8.94749 14.8698 6.97899 17.1958 6.97899C19.5217 6.97899 21.4145 8.94749 21.4145 11.3665V14.2915C21.4106 15.5376 21.8281 16.7456 22.5939 17.704H11.7967H11.7977Z" fill="#021752"/>
<path d="M6.59332 18.221C5.93406 16.7314 5.56337 15.1214 5.5024 13.4828C5.44144 11.8443 5.69139 10.2092 6.238 8.67114" stroke="#021752"/>
<path d="M8.97691 17.061C8.46411 15.8969 8.17681 14.6392 8.13138 13.3597C8.08596 12.0802 8.28331 10.8039 8.71217 9.60371" stroke="#021752"/>
<path d="M28.4067 18.221C29.066 16.7314 29.4366 15.1214 29.4976 13.4828C29.5586 11.8443 29.3086 10.2092 28.762 8.67114" stroke="#021752"/>
<path d="M26.0231 17.061C26.5359 15.8969 26.8232 14.6392 26.8686 13.3597C26.914 12.0802 26.7167 10.8039 26.2878 9.60371" stroke="#021752"/>
</g>
</g>
<defs>
<clipPath id="clip0_105_2">
<rect width="35" height="26" fill="white"/>
</clipPath>
<clipPath id="clip1_105_2">
<rect width="25" height="26" fill="white" transform="translate(5)"/>
</clipPath>
</defs>
</svg>
